<?xml version="1.0" encoding="utf-8"?>
<!-- Generator: Adobe Illustrator 24.0.1, SVG Export Plug-In . SVG Version: 6.00 Build 0)  -->
<!DOCTYPE svg PUBLIC "-//W3C//DTD SVG 1.1//EN" "http://www.w3.org/Graphics/SVG/1.1/DTD/svg11.dtd" [
	<!ENTITY st0 "fill:none;">
	<!ENTITY st1 "fill:#5550FE;">
	<!ENTITY st2 "fill:#5550FF;">
	<!ENTITY st3 "fill:#FFBE3C;">
	<!ENTITY st4 "fill:#00C3D2;">
	<!ENTITY st5 "opacity:0.8;">
	<!ENTITY st6 "fill:#FFFFFF;">
	<!ENTITY st7 "fill:#C4C4C4;">
]>
<svg version="1.1" id="Calque_1" xmlns="http://www.w3.org/2000/svg" xmlns:xlink="http://www.w3.org/1999/xlink" x="0px" y="0px"
	 viewBox="0 0 161.71 161.57" style="enable-background:new 0 0 161.71 161.57;" xml:space="preserve">
<g>
	<path style="&st0;" d="M45.02,72.05c-1.03,4.19-1.34,8.6-0.8,13.06c0.17,1.46,0.42,2.92,0.78,4.39
		c3.1,12.71,12.44,22.25,23.98,26.17c5.15,1.75,10.72,2.36,16.38,1.65c1.38-0.17,2.77-0.4,4.15-0.74
		c11.77-2.87,20.82-11.09,25.21-21.44c2.44-5.75,3.41-12.16,2.63-18.67c-0.17-1.46-0.41-2.93-0.77-4.4
		c-4.44-18.22-21.72-29.94-39.87-27.89c-1.54,0.17-3.09,0.43-4.63,0.81c-6.23,1.52-11.7,4.54-16.12,8.58
		c-0.79,0.72-1.53,1.49-2.25,2.27c-3.56,3.88-6.26,8.48-7.91,13.48"/>
	<g>
		<path style="&st1;" d="M50.36,26.53c-0.71-0.56-1.57-0.86-2.46-0.86c-0.16,0-0.32,0.01-0.48,0.03c-2.19,0.26-3.75,2.25-3.5,4.43
			c0.26,2.19,2.25,3.76,4.43,3.5c2.19-0.26,3.75-2.25,3.49-4.43C51.73,28.14,51.2,27.19,50.36,26.53z"/>
		<path style="&st1;" d="M63.33,33.88c0.26,2.19,2.25,3.75,4.43,3.5c2.19-0.26,3.75-2.25,3.5-4.43c-0.12-1.06-0.66-2.01-1.49-2.67
			c-0.71-0.56-1.57-0.86-2.46-0.86c-0.16,0-0.32,0.01-0.48,0.03C64.64,29.7,63.07,31.69,63.33,33.88z"/>
		<path style="&st1;" d="M135.32,87.67c-0.79,0-1.58,0.23-2.27,0.71c-0.88,0.61-1.46,1.52-1.65,2.57c-0.19,1.05,0.04,2.11,0.65,2.98
			c0.61,0.88,1.52,1.46,2.57,1.65c1.05,0.19,2.11-0.04,2.99-0.65c0.88-0.61,1.46-1.52,1.65-2.57s-0.04-2.11-0.65-2.99
			C137.83,88.27,136.58,87.67,135.32,87.67z"/>
		<path style="&st1;" d="M41.13,30.47c-0.44-3.73,2.23-7.12,5.96-7.56c3.73-0.44,7.11,2.23,7.56,5.96c0.02,0.16,0,0.31,0.01,0.47
			l6.41,1.41c0.93-2.16,2.93-3.8,5.43-4.09c0.26-0.03,0.52-0.01,0.77-0.01l5.46-26.21c-0.4,0.04-0.79,0.06-1.19,0.11
			c-3.28,0.38-6.58,0.94-9.87,1.75C48.01,5.61,36.01,12.23,26.32,21.1c-1.81,1.65-3.53,3.39-5.17,5.2l14.7,13.34l6.35-6.3
			C41.64,32.49,41.26,31.53,41.13,30.47z"/>
		<path style="&st1;" d="M93.42,20.44c-0.24-0.04-0.48-0.06-0.72-0.06c-0.81,0-1.59,0.24-2.27,0.71c-1.81,1.26-2.26,3.75-1,5.56
			c1.26,1.81,3.75,2.26,5.56,1c1.81-1.26,2.26-3.75,1-5.56C95.38,21.21,94.47,20.63,93.42,20.44z"/>
		<path style="&st2;" d="M140.91,87.78c0.44,0.64,0.74,1.34,0.95,2.07l19.33-1.19c0.56-5.69,0.52-11.51-0.18-17.36
			c-0.38-3.2-0.96-6.42-1.74-9.64c-3.29-13.51-9.81-25.38-18.52-35.01l-24.45,10.28c0.1,0.71,0.12,1.43-0.01,2.15
			c-0.11,0.63-0.34,1.21-0.61,1.76l27.34,25.76c0.12-0.09,0.22-0.2,0.34-0.29c3.08-2.14,7.33-1.37,9.47,1.71
			c2.14,3.08,1.37,7.33-1.71,9.47c-1.15,0.8-2.49,1.22-3.87,1.22c-0.41,0-0.81-0.04-1.22-0.11c-1.79-0.32-3.35-1.32-4.38-2.82
			c-1.04-1.49-1.43-3.3-1.11-5.09c0.12-0.68,0.37-1.32,0.69-1.92l-27.29-25.72c-0.16,0.13-0.3,0.28-0.47,0.4
			c-1.18,0.82-2.53,1.21-3.87,1.21c-2.16,0-4.28-1.02-5.6-2.92c-2.14-3.08-1.37-7.33,1.71-9.47c1.49-1.04,3.3-1.43,5.09-1.11
			c1.79,0.32,3.35,1.32,4.38,2.82c0.06,0.09,0.1,0.19,0.16,0.29l23.35-9.82C129.6,15.13,118.36,8.13,106,4.05l-8.76,15.26
			c0.39,0.35,0.75,0.73,1.06,1.18c2.14,3.08,1.37,7.33-1.71,9.47c-1.18,0.82-2.53,1.21-3.87,1.21c-2.16,0-4.28-1.02-5.6-2.92
			c-2.14-3.08-1.37-7.33,1.71-9.47c1.49-1.04,3.3-1.43,5.09-1.11c0.3,0.05,0.59,0.16,0.88,0.25l8.46-14.72
			c-8.8-2.56-18.12-3.64-27.6-3.03l-5.63,27.04c2.13,0.94,3.74,2.93,4.03,5.4c0.44,3.73-2.23,7.12-5.96,7.56
			c-0.27,0.03-0.54,0.05-0.81,0.05c-1.52,0-2.99-0.51-4.2-1.46c-1.43-1.13-2.33-2.74-2.54-4.54c-0.03-0.24-0.01-0.47-0.01-0.7
			l-6.32-1.39c-0.89,2.27-2.93,4-5.51,4.31c-0.27,0.03-0.54,0.05-0.8,0.05c-1.36,0-2.64-0.42-3.72-1.13l-6.24,6.19L53.7,55.84
			c0.72-0.78,1.46-1.55,2.25-2.27c4.42-4.04,9.89-7.07,16.12-8.58c1.55-0.38,3.09-0.64,4.63-0.81c18.16-2.05,35.44,9.67,39.87,27.89
			c0.36,1.47,0.59,2.94,0.77,4.4c0.78,6.51-0.19,12.92-2.63,18.67l40.47,17.13c2.79-6.59,4.71-13.57,5.68-20.77l-18.82,1.16
			c-0.01,0.07,0,0.14-0.02,0.21c-0.32,1.79-1.32,3.35-2.82,4.38c-1.15,0.8-2.49,1.22-3.87,1.22c-0.41,0-0.81-0.04-1.22-0.11
			c-1.79-0.32-3.35-1.32-4.38-2.82c-1.04-1.49-1.43-3.3-1.11-5.09c0.32-1.79,1.32-3.34,2.82-4.38
			C134.52,83.93,138.77,84.7,140.91,87.78z"/>
		<path style="&st1;" d="M146.54,75.85c1.04,0.19,2.11-0.04,2.99-0.65c1.81-1.26,2.26-3.75,1-5.56c-0.77-1.12-2.02-1.71-3.28-1.71
			c-0.79,0-1.58,0.23-2.27,0.71c-0.88,0.61-1.46,1.52-1.65,2.57c-0.19,1.05,0.04,2.11,0.65,2.99
			C144.58,75.07,145.49,75.66,146.54,75.85z"/>
		<path style="&st1;" d="M110.31,33.95c-0.24-0.04-0.48-0.06-0.72-0.06c-0.81,0-1.59,0.24-2.27,0.71c-1.81,1.26-2.26,3.75-1,5.56
			c1.26,1.81,3.75,2.26,5.56,1c0.88-0.61,1.46-1.52,1.65-2.57c0.19-1.05-0.04-2.11-0.65-2.99
			C112.27,34.73,111.36,34.14,110.31,33.95z"/>
	</g>
	<g>
		<path style="&st3;" d="M24.07,65.96c0.84,0.66,1.88,0.96,2.94,0.83c1.06-0.12,2.01-0.66,2.67-1.49c0.66-0.84,0.96-1.88,0.83-2.94
			c-0.12-1.06-0.66-2.01-1.49-2.67c-0.71-0.56-1.57-0.86-2.46-0.86c-0.16,0-0.32,0.01-0.48,0.03c-2.19,0.26-3.75,2.25-3.5,4.43
			C22.7,64.35,23.23,65.3,24.07,65.96z"/>
		<path style="&st3;" d="M32.03,51.3c0.26,2.19-0.58,4.25-2.06,5.68c0.26,0.16,0.53,0.31,0.78,0.5c1.43,1.13,2.33,2.74,2.54,4.54
			c0.08,0.7,0.03,1.38-0.1,2.05l12.59,5.25c1.64-5,4.35-9.61,7.91-13.48L37.93,41.53l-6.96,6.9C31.52,49.27,31.9,50.23,32.03,51.3z"
			/>
		<path style="&st3;" d="M25.74,56.06c1.06-0.12,2.01-0.66,2.67-1.49c0.66-0.84,0.96-1.88,0.83-2.94c-0.24-2.03-1.97-3.52-3.96-3.52
			c-0.16,0-0.31,0.01-0.47,0.03c-1.06,0.12-2.01,0.66-2.67,1.49c-0.66,0.84-0.96,1.88-0.83,2.94
			C21.57,54.75,23.55,56.31,25.74,56.06z"/>
		<path style="&st3;" d="M45.15,141.39c-1.15,0.8-2.49,1.22-3.87,1.22c-0.41,0-0.81-0.04-1.22-0.11c-1.79-0.32-3.34-1.32-4.38-2.82
			c-2.14-3.08-1.37-7.33,1.71-9.47c0.36-0.25,0.74-0.46,1.13-0.63l-4.89-23.22c0,0,0,0,0,0c-3.4,0-6.34-2.55-6.75-6.01
			c-0.04-0.34-0.03-0.67-0.02-1.01c-0.29,0.07-0.57,0.16-0.87,0.19c-0.27,0.03-0.54,0.05-0.8,0.05c-3.4,0-6.34-2.55-6.75-6.01
			c-0.03-0.23-0.01-0.46-0.01-0.69L0.44,88.94c0.05,0.44,0.07,0.89,0.12,1.33c0.38,3.2,0.95,6.41,1.73,9.62
			c6.79,27.88,27.29,48.81,52.58,57.4l5.26-15.55l-12.66-3.22C47,139.64,46.22,140.65,45.15,141.39z"/>
		<path style="&st3;" d="M37.99,138.08c1.26,1.81,3.75,2.26,5.56,1c0.88-0.61,1.46-1.52,1.65-2.57c0.19-1.05-0.04-2.11-0.65-2.99
			c-0.77-1.12-2.02-1.71-3.28-1.71c-0.79,0-1.58,0.23-2.27,0.71C37.18,133.78,36.73,136.27,37.99,138.08z"/>
		<path style="&st3;" d="M22.71,95.92c0.84,0.66,1.88,0.96,2.94,0.83c2.19-0.26,3.75-2.25,3.5-4.43c-0.12-1.06-0.66-2.01-1.49-2.67
			c-0.71-0.56-1.57-0.86-2.46-0.86c-0.16,0-0.32,0.01-0.48,0.03c-1.06,0.12-2.01,0.66-2.67,1.49c-0.66,0.84-0.96,1.88-0.83,2.94
			C21.34,94.32,21.87,95.26,22.71,95.92z"/>
		<path style="&st3;" d="M36.1,96.42c-0.71-0.56-1.57-0.86-2.46-0.86c-0.16,0-0.32,0.01-0.48,0.03c-1.06,0.12-2.01,0.66-2.67,1.49
			c-0.66,0.84-0.96,1.88-0.83,2.94c0.26,2.19,2.25,3.75,4.43,3.5c1.06-0.12,2.01-0.66,2.67-1.49c0.66-0.84,0.96-1.88,0.83-2.94v0
			C37.47,98.03,36.94,97.09,36.1,96.42z"/>
		<path style="&st3;" d="M44.99,89.5c-0.36-1.46-0.6-2.93-0.78-4.39c-0.53-4.47-0.22-8.88,0.8-13.06l-12.9-5.38
			c-0.08,0.12-0.14,0.25-0.23,0.37c-1.13,1.43-2.74,2.33-4.54,2.54c-0.27,0.03-0.54,0.05-0.8,0.05c-3.4,0-6.34-2.55-6.75-6.01
			c-0.26-2.19,0.58-4.24,2.04-5.67c-1.77-1.04-3.05-2.86-3.31-5.06c-0.44-3.73,2.23-7.12,5.96-7.56c1.65-0.19,3.22,0.25,4.51,1.1
			l6.86-6.8L21.14,26.3C6.64,42.21-1.3,63.67,0.17,86l18.77,4.14c0.23-0.55,0.52-1.08,0.9-1.56c1.13-1.43,2.74-2.33,4.54-2.54
			c1.81-0.22,3.58,0.29,5.01,1.41c1.43,1.13,2.33,2.74,2.54,4.54c0.04,0.34,0.03,0.67,0.02,1c0.29-0.07,0.58-0.16,0.88-0.19
			c1.8-0.21,3.59,0.29,5.01,1.41c1.43,1.13,2.33,2.74,2.54,4.54c0.36,3.03-1.36,5.81-4.01,6.99l4.9,23.26
			c2.15,0,4.27,1.02,5.58,2.91c0.81,1.17,1.2,2.51,1.21,3.84l12.98,3.31l7.92-23.4C57.44,111.75,48.09,102.21,44.99,89.5z"/>
	</g>
	<g>
		<path style="&st4;" d="M94.85,135.93c1.05,0.19,2.11-0.04,2.99-0.65c1.81-1.26,2.26-3.75,1-5.56c-0.77-1.12-2.02-1.71-3.28-1.71
			c-0.79,0-1.58,0.23-2.27,0.71c-0.88,0.61-1.46,1.52-1.65,2.57c-0.19,1.05,0.04,2.11,0.65,2.99
			C92.89,135.16,93.8,135.74,94.85,135.93z"/>
		<path style="&st4;" d="M128.7,116c1.04,0.18,2.11-0.04,2.99-0.65c1.81-1.26,2.26-3.75,1-5.56c-0.77-1.12-2.02-1.71-3.28-1.71
			c-0.79,0-1.58,0.23-2.27,0.71c-1.81,1.26-2.26,3.75-1,5.56C126.74,115.22,127.65,115.81,128.7,116z"/>
		<path style="&st4;" d="M117.23,144.28c0.88-0.61,1.46-1.52,1.65-2.57c0.19-1.05-0.04-2.11-0.65-2.99
			c-0.77-1.12-2.02-1.71-3.28-1.71c-0.79,0-1.58,0.23-2.27,0.71c-1.81,1.26-2.26,3.75-1,5.56
			C112.93,145.08,115.42,145.53,117.23,144.28z"/>
		<path style="&st4;" d="M83.37,148.91c1.81-1.26,2.26-3.75,1-5.56c-0.77-1.12-2.02-1.71-3.28-1.71c-0.79,0-1.58,0.23-2.27,0.71
			c-1.81,1.26-2.26,3.75-1,5.56C79.07,149.71,81.57,150.16,83.37,148.91z"/>
		<path style="&st4;" d="M114.71,95.13c-4.39,10.35-13.45,18.58-25.21,21.44c-1.39,0.34-2.77,0.57-4.15,0.74
			c-5.65,0.71-11.23,0.1-16.38-1.65l-7.92,23.4l13.98,3.56c0.49-1,1.21-1.91,2.19-2.59c2.39-1.66,5.48-1.55,7.75,0.02l4.81-4.53
			c-0.87-1.42-1.2-3.08-0.91-4.73c0.32-1.79,1.32-3.34,2.82-4.38c3.08-2.14,7.33-1.38,9.47,1.71c1.14,1.64,1.43,3.59,1.02,5.4
			l7.36,3.41c0.43-0.57,0.92-1.1,1.54-1.53c1.76-1.22,3.89-1.47,5.8-0.91l8.36-17.1c-0.53-0.42-1.02-0.89-1.41-1.45
			c-2.14-3.08-1.37-7.33,1.71-9.47c3.08-2.14,7.33-1.37,9.47,1.71c2.14,3.08,1.37,7.33-1.71,9.47c-1.15,0.8-2.49,1.22-3.87,1.22
			c-0.41,0-0.81-0.04-1.22-0.11c-0.15-0.03-0.29-0.09-0.44-0.13l-8.41,17.19c0.44,0.37,0.85,0.78,1.19,1.28
			c1.04,1.49,1.43,3.3,1.11,5.09c-0.32,1.79-1.32,3.34-2.82,4.38c-1.18,0.82-2.53,1.21-3.87,1.21c-2.16,0-4.28-1.02-5.6-2.92
			c-1.13-1.64-1.43-3.59-1.02-5.4l-7.36-3.42c-0.43,0.57-0.92,1.1-1.54,1.53c-1.15,0.8-2.49,1.22-3.87,1.22
			c-0.41,0-0.81-0.04-1.22-0.11c-0.98-0.18-1.87-0.57-2.66-1.12l-4.8,4.53c1.85,3.05,1.06,7.05-1.91,9.11
			c-1.18,0.82-2.53,1.21-3.87,1.21c-2.16,0-4.28-1.02-5.6-2.92c-0.88-1.26-1.24-2.72-1.18-4.15l-14.18-3.61l-5.26,15.55
			c11.2,3.8,23.33,5.19,35.63,3.69c3.12-0.38,6.26-0.94,9.39-1.7c25.8-6.28,45.66-24.31,55.28-47.01L114.71,95.13z"/>
	</g>
</g>
</svg>
